# xmcd
#
# Track frame offsets:
#	183
#	17375
#	32933
#	44423
#	58870
#	71753
#	85670
#	100623
#	112373
#	127663
#
# Disc length: 1890 seconds
#
# Revision: 1
# Processed by: cddbd v1.5.2PL0 Copyright (c) Steve Scherf et al.
# Submitted via: EasyCDDAExtractor 12.0.1.1
#
DISCID=8007600a
DTITLE=Various Artist - Good times and Hard times
DYEAR=1992
DGENRE=Country
TTITLE0=Marsha Britton - Sacred Love
TTITLE1=Marsha Britton - Cool Water
TTITLE2=Marsha Britton - Sam HIll
TTITLE3=Marsha Britton - A Safe Place To Land
TTITLE4=Marsha Britton - You're Walking And Talking In Your Sleep Ágain
TTITLE5=Marsha Britton - Midnight Louisiana Run
TTITLE6=Marsha Britton - Freedom Rings
TTITLE7=Marsha Britton and Benny Berry - You Make The Hard Times Easier For Me
TTITLE8=Marsha Britton - Old Blue Purse
TTITLE9=Marsha Britton and Benny Berry - We've Had Some Good Times
EXTD=
EXTT0=
EXTT1=
EXTT2=
EXTT3=
EXTT4=
EXTT5=
EXTT6=
EXTT7=
EXTT8=
EXTT9=
PLAYORDER=
